<mxfile host="app.diagrams.net" agent="Mozilla/5.0 (X11; Linux x86_64) AppleWebKit/537.36 (KHTML, like Gecko) Chrome/135.0.0.0 Safari/537.36" version="26.2.12">
  <diagram id="Obtw7hWjcbRMHZzKKVQQ" name="Page-1">
    <mxGraphModel dx="1379" dy="787" grid="1" gridSize="10" guides="1" tooltips="1" connect="1" arrows="1" fold="1" page="1" pageScale="1" pageWidth="850" pageHeight="1100" math="0" shadow="0">
      <root>
        <mxCell id="0" />
        <mxCell id="1" parent="0" />
        <mxCell id="Sm6lgxGxhX-OD437qet4-91" value="Remote Environment" style="rounded=0;whiteSpace=wrap;html=1;fontStyle=1;verticalAlign=top;align=center;dashed=1;fillColor=none;spacingRight=7.874;" vertex="1" parent="1">
          <mxGeometry x="15" y="810" width="335" height="140" as="geometry" />
        </mxCell>
        <mxCell id="Sm6lgxGxhX-OD437qet4-88" value="Userspace" style="rounded=0;whiteSpace=wrap;html=1;fontStyle=1;verticalAlign=top;align=right;dashed=1;fillColor=none;spacingRight=7.874;" vertex="1" parent="1">
          <mxGeometry x="15" y="540" width="545" height="230" as="geometry" />
        </mxCell>
        <mxCell id="Sm6lgxGxhX-OD437qet4-87" value="systemd" style="rounded=0;whiteSpace=wrap;html=1;dashed=1;verticalAlign=top;align=right;fontStyle=1;fillColor=none;fontSize=14;spacingRight=7.874;" vertex="1" parent="1">
          <mxGeometry x="15" y="60" width="745" height="440" as="geometry" />
        </mxCell>
        <mxCell id="54" value="" style="rounded=0;whiteSpace=wrap;html=1;verticalAlign=top;align=center;dashed=1;fillColor=default;dashPattern=1 2;" parent="1" vertex="1">
          <mxGeometry x="590" y="120" width="140" height="135" as="geometry" />
        </mxCell>
        <mxCell id="3" value="bupstash-backup@.&lt;b&gt;service&lt;/b&gt;" style="rounded=0;whiteSpace=wrap;html=1;fillColor=#fff2cc;strokeColor=#d6b656;" parent="1" vertex="1">
          <mxGeometry x="280" y="225" width="120" height="60" as="geometry" />
        </mxCell>
        <mxCell id="7" value="" style="edgeStyle=none;html=1;strokeWidth=1;" parent="1" source="5" target="3" edge="1">
          <mxGeometry relative="1" as="geometry">
            <mxPoint x="150" y="255" as="sourcePoint" />
          </mxGeometry>
        </mxCell>
        <mxCell id="75" value="Invoke" style="edgeLabel;html=1;align=center;verticalAlign=middle;resizable=0;points=[];" parent="7" vertex="1" connectable="0">
          <mxGeometry x="-0.0432" y="-2" relative="1" as="geometry">
            <mxPoint as="offset" />
          </mxGeometry>
        </mxCell>
        <mxCell id="4" value="bupstash-backup@.&lt;b&gt;timer&lt;/b&gt;" style="rounded=0;whiteSpace=wrap;html=1;fillColor=#dae8fc;strokeColor=#6c8ebf;" parent="1" vertex="1">
          <mxGeometry x="40" y="225" width="120" height="60" as="geometry" />
        </mxCell>
        <mxCell id="6" value="Hardlink" style="edgeStyle=none;html=1;" parent="1" source="5" target="4" edge="1">
          <mxGeometry relative="1" as="geometry" />
        </mxCell>
        <mxCell id="5" value="&lt;font style=&quot;font-size: 11px;&quot;&gt;bupstash-backup-\\x2a\\x2d\\x2a\\x2d\\x2a\\x2022:00@-backup-path.&lt;b&gt;timer&lt;/b&gt;&lt;/font&gt;" style="rounded=0;whiteSpace=wrap;html=1;fillColor=#dae8fc;strokeColor=#6c8ebf;" parent="1" vertex="1">
          <mxGeometry x="40" y="85" width="375" height="60" as="geometry" />
        </mxCell>
        <mxCell id="19" value="" style="edgeStyle=none;html=1;exitX=0.25;exitY=1;exitDx=0;exitDy=0;fillColor=#dae8fc;strokeColor=#6c8ebf;entryX=0.75;entryY=0;entryDx=0;entryDy=0;" parent="1" source="8" target="15" edge="1">
          <mxGeometry x="-0.561" y="4" relative="1" as="geometry">
            <Array as="points" />
            <mxPoint as="offset" />
          </mxGeometry>
        </mxCell>
        <mxCell id="86" value="&lt;span style=&quot;color: rgb(0, 0, 0);&quot;&gt;Invoke&lt;/span&gt;" style="edgeLabel;html=1;align=center;verticalAlign=middle;resizable=0;points=[];" parent="19" vertex="1" connectable="0">
          <mxGeometry x="-0.5632" y="-2" relative="1" as="geometry">
            <mxPoint y="-2" as="offset" />
          </mxGeometry>
        </mxCell>
        <mxCell id="8" value="bupstash-notify-success@.&lt;b&gt;service&lt;/b&gt;" style="rounded=0;whiteSpace=wrap;html=1;fillColor=#fff2cc;strokeColor=#d6b656;" parent="1" vertex="1">
          <mxGeometry x="420" y="405" width="120" height="60" as="geometry" />
        </mxCell>
        <mxCell id="20" value="" style="edgeStyle=none;html=1;exitX=0.75;exitY=1;exitDx=0;exitDy=0;fillColor=#e1d5e7;strokeColor=#9673a6;entryX=1;entryY=0.5;entryDx=0;entryDy=0;" parent="1" source="9" target="16" edge="1">
          <mxGeometry x="-0.7007" y="-2" relative="1" as="geometry">
            <Array as="points" />
            <mxPoint as="offset" />
          </mxGeometry>
        </mxCell>
        <mxCell id="82" value="&lt;span style=&quot;color: rgb(0, 0, 0);&quot;&gt;Invoke&lt;/span&gt;" style="edgeLabel;html=1;align=center;verticalAlign=middle;resizable=0;points=[];" parent="20" vertex="1" connectable="0">
          <mxGeometry x="-0.467" y="-2" relative="1" as="geometry">
            <mxPoint x="35" y="-21" as="offset" />
          </mxGeometry>
        </mxCell>
        <mxCell id="9" value="&lt;span style=&quot;color: rgb(0, 0, 0);&quot;&gt;bupstash-notify-fail@.&lt;b&gt;service&lt;/b&gt;&lt;/span&gt;" style="rounded=0;whiteSpace=wrap;html=1;fillColor=#fff2cc;strokeColor=#d6b656;" parent="1" vertex="1">
          <mxGeometry x="600" y="405" width="120" height="60" as="geometry" />
        </mxCell>
        <mxCell id="10" value="" style="edgeStyle=none;html=1;fillColor=#d5e8d4;strokeColor=#82b366;exitX=0.75;exitY=1;exitDx=0;exitDy=0;entryX=0.5;entryY=0;entryDx=0;entryDy=0;" parent="1" source="3" target="8" edge="1">
          <mxGeometry relative="1" as="geometry">
            <mxPoint x="180" y="265" as="sourcePoint" />
            <mxPoint x="290" y="265" as="targetPoint" />
          </mxGeometry>
        </mxCell>
        <mxCell id="23" value="OnSuccess" style="edgeLabel;html=1;align=center;verticalAlign=middle;resizable=0;points=[];fontColor=#009900;" parent="10" vertex="1" connectable="0">
          <mxGeometry x="-0.2063" y="1" relative="1" as="geometry">
            <mxPoint x="6" y="13" as="offset" />
          </mxGeometry>
        </mxCell>
        <mxCell id="11" value="OnFailure" style="edgeStyle=none;html=1;fillColor=#f8cecc;strokeColor=#b85450;fontColor=#CC0000;entryX=0.5;entryY=0;entryDx=0;entryDy=0;" parent="1" source="3" target="9" edge="1">
          <mxGeometry x="0.0028" y="-1" relative="1" as="geometry">
            <mxPoint x="323" y="295" as="sourcePoint" />
            <mxPoint x="272" y="350" as="targetPoint" />
            <mxPoint as="offset" />
          </mxGeometry>
        </mxCell>
        <mxCell id="34" value="Call" style="edgeStyle=none;html=1;" parent="1" source="16" edge="1" target="44">
          <mxGeometry relative="1" as="geometry">
            <mxPoint x="265" y="715" as="targetPoint" />
          </mxGeometry>
        </mxCell>
        <mxCell id="15" value="curl" style="shape=process;whiteSpace=wrap;html=1;backgroundOutline=1;fillColor=#fad9d5;strokeColor=#ae4132;" parent="1" vertex="1">
          <mxGeometry x="205" y="580" width="120" height="40" as="geometry" />
        </mxCell>
        <mxCell id="35" value="Post" style="edgeStyle=none;html=1;" parent="1" source="15" target="33" edge="1">
          <mxGeometry relative="1" as="geometry" />
        </mxCell>
        <mxCell id="16" value="busctl" style="shape=process;whiteSpace=wrap;html=1;backgroundOutline=1;fillColor=#fad9d5;strokeColor=#ae4132;" parent="1" vertex="1">
          <mxGeometry x="370" y="615" width="120" height="35" as="geometry" />
        </mxCell>
        <mxCell id="17" value="bupstash" style="shape=process;whiteSpace=wrap;html=1;backgroundOutline=1;fillColor=#fad9d5;strokeColor=#ae4132;" parent="1" vertex="1">
          <mxGeometry x="40" y="617.5" width="120" height="35" as="geometry" />
        </mxCell>
        <mxCell id="18" value="" style="edgeStyle=none;html=1;entryX=0.5;entryY=0;entryDx=0;entryDy=0;exitX=0;exitY=0.5;exitDx=0;exitDy=0;strokeWidth=1;" parent="1" source="3" target="17" edge="1">
          <mxGeometry x="0.1111" relative="1" as="geometry">
            <mxPoint x="387" y="295" as="sourcePoint" />
            <mxPoint x="453" y="350" as="targetPoint" />
            <Array as="points" />
            <mxPoint as="offset" />
          </mxGeometry>
        </mxCell>
        <mxCell id="81" value="&lt;span style=&quot;color: rgb(0, 0, 0);&quot;&gt;Invoke&lt;/span&gt;" style="edgeLabel;html=1;align=center;verticalAlign=middle;resizable=0;points=[];" parent="18" vertex="1" connectable="0">
          <mxGeometry x="-0.0786" y="-1" relative="1" as="geometry">
            <mxPoint x="9" y="-32" as="offset" />
          </mxGeometry>
        </mxCell>
        <mxCell id="24" value="" style="edgeStyle=none;html=1;exitX=0.25;exitY=1;exitDx=0;exitDy=0;fillColor=#dae8fc;strokeColor=#6c8ebf;entryX=1;entryY=0.5;entryDx=0;entryDy=0;" parent="1" source="9" target="15" edge="1">
          <mxGeometry x="-0.66" relative="1" as="geometry">
            <mxPoint x="350" y="410" as="sourcePoint" />
            <mxPoint x="350" y="480" as="targetPoint" />
            <Array as="points" />
            <mxPoint as="offset" />
          </mxGeometry>
        </mxCell>
        <mxCell id="83" value="&lt;span style=&quot;color: rgb(0, 0, 0);&quot;&gt;Invoke&lt;/span&gt;" style="edgeLabel;html=1;align=center;verticalAlign=middle;resizable=0;points=[];" parent="24" vertex="1" connectable="0">
          <mxGeometry x="-0.6213" y="1" relative="1" as="geometry">
            <mxPoint x="18" y="-6" as="offset" />
          </mxGeometry>
        </mxCell>
        <mxCell id="25" value="" style="edgeStyle=none;html=1;exitX=0.75;exitY=1;exitDx=0;exitDy=0;fillColor=#e1d5e7;strokeColor=#9673a6;entryX=0.75;entryY=0;entryDx=0;entryDy=0;" parent="1" source="8" target="16" edge="1">
          <mxGeometry x="-0.6204" y="-3" relative="1" as="geometry">
            <mxPoint x="350" y="410" as="sourcePoint" />
            <mxPoint x="350" y="480" as="targetPoint" />
            <Array as="points" />
            <mxPoint as="offset" />
          </mxGeometry>
        </mxCell>
        <mxCell id="85" value="&lt;span style=&quot;color: rgb(0, 0, 0);&quot;&gt;Invoke&lt;/span&gt;" style="edgeLabel;html=1;align=center;verticalAlign=middle;resizable=0;points=[];" parent="25" vertex="1" connectable="0">
          <mxGeometry x="-0.6154" y="-2" relative="1" as="geometry">
            <mxPoint x="1" y="-7" as="offset" />
          </mxGeometry>
        </mxCell>
        <mxCell id="28" value="" style="edgeStyle=none;html=1;exitX=0.25;exitY=1;exitDx=0;exitDy=0;entryX=0.25;entryY=0;entryDx=0;entryDy=0;fillColor=#dae8fc;strokeColor=#6c8ebf;" parent="1" source="3" target="15" edge="1">
          <mxGeometry x="-0.1022" y="4" relative="1" as="geometry">
            <mxPoint x="290" y="287" as="sourcePoint" />
            <mxPoint x="80" y="480" as="targetPoint" />
            <Array as="points" />
            <mxPoint as="offset" />
          </mxGeometry>
        </mxCell>
        <mxCell id="79" value="Invoke" style="edgeLabel;html=1;align=center;verticalAlign=middle;resizable=0;points=[];" parent="28" vertex="1" connectable="0">
          <mxGeometry x="-0.2546" y="-2" relative="1" as="geometry">
            <mxPoint y="-4" as="offset" />
          </mxGeometry>
        </mxCell>
        <mxCell id="29" value="" style="edgeStyle=none;html=1;exitX=0.5;exitY=1;exitDx=0;exitDy=0;entryX=0.25;entryY=0;entryDx=0;entryDy=0;fillColor=#e1d5e7;strokeColor=#9673a6;" parent="1" source="3" target="16" edge="1">
          <mxGeometry x="-0.1923" y="6" relative="1" as="geometry">
            <mxPoint x="320" y="295" as="sourcePoint" />
            <mxPoint x="245" y="495" as="targetPoint" />
            <Array as="points" />
            <mxPoint as="offset" />
          </mxGeometry>
        </mxCell>
        <mxCell id="80" value="&lt;span style=&quot;color: rgb(0, 0, 0);&quot;&gt;Invoke&lt;/span&gt;" style="edgeLabel;html=1;align=center;verticalAlign=middle;resizable=0;points=[];" parent="29" vertex="1" connectable="0">
          <mxGeometry x="-0.3454" y="-3" relative="1" as="geometry">
            <mxPoint y="-4" as="offset" />
          </mxGeometry>
        </mxCell>
        <mxCell id="33" value="Ntfy" style="ellipse;shape=cloud;whiteSpace=wrap;html=1;fillColor=#b1ddf0;strokeColor=#10739e;fontStyle=0" parent="1" vertex="1">
          <mxGeometry x="202.5" y="835" width="125" height="100" as="geometry" />
        </mxCell>
        <mxCell id="38" value="Put" style="endArrow=classic;html=1;strokeWidth=1;" parent="1" source="17" edge="1" target="45">
          <mxGeometry width="50" height="50" relative="1" as="geometry">
            <mxPoint x="80" y="725" as="sourcePoint" />
            <mxPoint x="100" y="715" as="targetPoint" />
          </mxGeometry>
        </mxCell>
        <mxCell id="40" value="check-metered-connection.&lt;b&gt;service&lt;/b&gt;" style="rounded=0;whiteSpace=wrap;html=1;fillColor=#fff2cc;strokeColor=#d6b656;" parent="1" vertex="1">
          <mxGeometry x="600" y="275" width="120" height="60" as="geometry" />
        </mxCell>
        <mxCell id="41" value="" style="edgeStyle=none;html=1;" parent="1" source="3" target="40" edge="1">
          <mxGeometry relative="1" as="geometry">
            <mxPoint x="268" y="155" as="sourcePoint" />
            <mxPoint x="328" y="235" as="targetPoint" />
          </mxGeometry>
        </mxCell>
        <mxCell id="78" value="Requirement" style="edgeLabel;html=1;align=center;verticalAlign=middle;resizable=0;points=[];" parent="41" vertex="1" connectable="0">
          <mxGeometry x="-0.1535" y="2" relative="1" as="geometry">
            <mxPoint x="5" y="-1" as="offset" />
          </mxGeometry>
        </mxCell>
        <mxCell id="44" value="D-Bus" style="shape=cylinder3;whiteSpace=wrap;html=1;boundedLbl=1;backgroundOutline=1;size=15;rotation=90;horizontal=0;fillColor=#b1ddf0;strokeColor=#10739e;" parent="1" vertex="1">
          <mxGeometry x="400" y="670" width="60" height="110" as="geometry" />
        </mxCell>
        <mxCell id="45" value="Storage" style="shape=cylinder3;whiteSpace=wrap;html=1;boundedLbl=1;backgroundOutline=1;size=15;fillColor=#b1ddf0;strokeColor=#10739e;" parent="1" vertex="1">
          <mxGeometry x="62.5" y="850" width="75" height="70" as="geometry" />
        </mxCell>
        <mxCell id="46" value="&lt;font style=&quot;font-size: 10px;&quot;&gt;~/.config/bupstash/config&lt;/font&gt;&lt;div&gt;&lt;font style=&quot;font-size: 10px;&quot;&gt;&lt;b&gt;File&lt;/b&gt;&lt;/font&gt;&lt;/div&gt;" style="shape=document;whiteSpace=wrap;html=1;boundedLbl=1;fillColor=#f5f5f5;strokeColor=#666666;fontColor=#333333;" parent="1" vertex="1">
          <mxGeometry x="600" y="135" width="120" height="50" as="geometry" />
        </mxCell>
        <mxCell id="51" value="&lt;span style=&quot;color: rgb(63, 63, 63); font-size: 10px;&quot;&gt;~/.local/bupstash&lt;/span&gt;&lt;div&gt;&lt;span style=&quot;color: rgb(63, 63, 63); font-size: 10px;&quot;&gt;&lt;b&gt;Directory&lt;/b&gt;&lt;/span&gt;&lt;/div&gt;" style="shape=dataStorage;whiteSpace=wrap;html=1;fixedSize=1;size=10;fillColor=#f5f5f5;strokeColor=#666666;fontColor=#333333;" parent="1" vertex="1">
          <mxGeometry x="600" y="195" width="120" height="50" as="geometry" />
        </mxCell>
        <mxCell id="52" value="" style="edgeStyle=none;html=1;entryX=0;entryY=0.5;entryDx=0;entryDy=0;" parent="1" source="3" target="54" edge="1">
          <mxGeometry relative="1" as="geometry">
            <mxPoint x="410" y="238" as="sourcePoint" />
            <mxPoint x="510" y="195" as="targetPoint" />
          </mxGeometry>
        </mxCell>
        <mxCell id="76" value="Condition" style="edgeLabel;html=1;align=center;verticalAlign=middle;resizable=0;points=[];" parent="52" vertex="1" connectable="0">
          <mxGeometry x="-0.0204" y="2" relative="1" as="geometry">
            <mxPoint x="-13" y="8" as="offset" />
          </mxGeometry>
        </mxCell>
        <mxCell id="72" value="Legend" style="swimlane;whiteSpace=wrap;html=1;fillColor=none;" parent="1" vertex="1">
          <mxGeometry x="620" y="540" width="140" height="210" as="geometry" />
        </mxCell>
        <mxCell id="55" value="" style="rounded=0;whiteSpace=wrap;html=1;fillColor=#dae8fc;strokeColor=#6c8ebf;" parent="72" vertex="1">
          <mxGeometry x="8" y="60" width="20" height="20" as="geometry" />
        </mxCell>
        <mxCell id="56" value="systemd timer" style="text;html=1;align=center;verticalAlign=middle;resizable=0;points=[];autosize=1;strokeColor=none;fillColor=none;" parent="72" vertex="1">
          <mxGeometry x="28" y="55" width="100" height="30" as="geometry" />
        </mxCell>
        <mxCell id="63" value="" style="rounded=0;whiteSpace=wrap;html=1;fillColor=#fff2cc;strokeColor=#d6b656;" parent="72" vertex="1">
          <mxGeometry x="8" y="90" width="20" height="20" as="geometry" />
        </mxCell>
        <mxCell id="64" value="systemd service" style="text;html=1;align=center;verticalAlign=middle;resizable=0;points=[];autosize=1;strokeColor=none;fillColor=none;" parent="72" vertex="1">
          <mxGeometry x="28" y="85" width="110" height="30" as="geometry" />
        </mxCell>
        <mxCell id="65" value="" style="rounded=0;whiteSpace=wrap;html=1;fillColor=#f8cecc;strokeColor=#b85450;" parent="72" vertex="1">
          <mxGeometry x="8" y="150" width="20" height="20" as="geometry" />
        </mxCell>
        <mxCell id="66" value="binary" style="text;html=1;align=center;verticalAlign=middle;resizable=0;points=[];autosize=1;strokeColor=none;fillColor=none;" parent="72" vertex="1">
          <mxGeometry x="28" y="145" width="60" height="30" as="geometry" />
        </mxCell>
        <mxCell id="67" value="" style="rounded=0;whiteSpace=wrap;html=1;fillColor=#f5f5f5;strokeColor=#666666;fontColor=#333333;" parent="72" vertex="1">
          <mxGeometry x="8" y="120" width="20" height="20" as="geometry" />
        </mxCell>
        <mxCell id="68" value="file or directory" style="text;html=1;align=center;verticalAlign=middle;resizable=0;points=[];autosize=1;strokeColor=none;fillColor=none;" parent="72" vertex="1">
          <mxGeometry x="30" y="115" width="100" height="30" as="geometry" />
        </mxCell>
        <mxCell id="69" value="" style="rounded=0;whiteSpace=wrap;html=1;fillColor=#b1ddf0;strokeColor=#10739e;" parent="72" vertex="1">
          <mxGeometry x="8" y="180" width="20" height="20" as="geometry" />
        </mxCell>
        <mxCell id="70" value="external system" style="text;html=1;align=center;verticalAlign=middle;resizable=0;points=[];autosize=1;strokeColor=none;fillColor=none;" parent="72" vertex="1">
          <mxGeometry x="28" y="175" width="110" height="30" as="geometry" />
        </mxCell>
        <mxCell id="Sm6lgxGxhX-OD437qet4-89" value="" style="rounded=0;whiteSpace=wrap;html=1;fillColor=none;strokeColor=#10739e;dashed=1;" vertex="1" parent="72">
          <mxGeometry x="8" y="30" width="20" height="20" as="geometry" />
        </mxCell>
        <mxCell id="Sm6lgxGxhX-OD437qet4-90" value="logical container" style="text;html=1;align=center;verticalAlign=middle;resizable=0;points=[];autosize=1;strokeColor=none;fillColor=none;" vertex="1" parent="72">
          <mxGeometry x="30" y="25" width="110" height="30" as="geometry" />
        </mxCell>
      </root>
    </mxGraphModel>
  </diagram>
</mxfile>
